# xmcd CD database file
#
# Track frame offsets:
#	150
#	18343
#	40126
#	62140
#	71478
#	78650
#	100330
#	113268
#	118438
#	133628
#	156532
#	180787
#	196928
#	209373
#	215879
#	253011
#
# Disc length: 3401 seconds
#
# Revision: 0
# Processed by: cddbd v1.5PL3 Copyright (c) Steve Scherf et al.
# Submitted via: CDex 1.50Beta7
#
DISCID=e80d4710
DTITLE=Omar Sosa and Adam Rudolph - Pictures of Soul
DYEAR=2004
DGENRE=Jazz
TTITLE0=Portrait
TTITLE1=The Call
TTITLE2=Kachirumba
TTITLE3=Eye of the Blackbird
TTITLE4=Dreams
TTITLE5=The Wandering Night
TTITLE6=Cuzco Refrain
TTITLE7=Intermezzo
TTITLE8=Trace of Burning Stars
TTITLE9=Green Silence
TTITLE10=Winter of the Flower
TTITLE11=Sweet Summer
TTITLE12=Serenade for Two
TTITLE13=Kiss of the Rain
TTITLE14=Pilgrimage
TTITLE15=Black Exit
EXTD=YEAR: 2004
EXTT0=
EXTT1=
EXTT2=
EXTT3=
EXTT4=
EXTT5=
EXTT6=
EXTT7=
EXTT8=
EXTT9=
EXTT10=
EXTT11=
EXTT12=
EXTT13=
EXTT14=
EXTT15=
PLAYORDER=
